@startuml
skinparam linetype polyline
skinparam linetype ortho

title Home Page Class Dependencies

package Home {

}

package core {
    package constants {
        enum "<<enumeration>>\nEndpoints" as endpoints {
            UAT
            PRODUCTION
            MOCK
        }
    }

    package system {
        class Logger {
            + LOG_DIR {static}
            + LOG_FILE {static}
            + STREAM_HANDLER {static}
            + FILE_HANDLER {static}
            + FORMATTER {static}
            + __init__(str) {static}
            + debug(str)
            + info(str)
            + warning(str)
            + error(str)
        }

        package cleaner {
            class "Static Context" {
                + start_schedule() {static}
                - _clean_temp() {static}
            }
        }
    }
}

package utils {
    package streamlit_utils {
        class "Static Context" as susc {
            + init(): None {static}
            + display_config(): None {static}
            + http_code_handler(Union[int, str]): None {static}}
            + validation_error_handler(list[str], list[str]): bool {static}
            + does_not_have_keys(): bool {static}
        }
    }

    package verify {
        class Validators {
            + _NRIC_PRODUCT {static}
            + _S_T_CHECKDIGIT {static}
            + _G_F_CHECKDIGIT {static}
            + _M_CHECKDIGIT {static}

            + verify_uen(str): bool {static}
            + verify_aes_encryption_key(str): bool {static}
            + verify_cert_private_key(str, str): bool {static}
            + verify_nric(str): bool {static}
        }
    }
}

Home ...> streamlit_utils
Home ...> Validators
Home ..> endpoints
Home ..> Logger
Home ..> cleaner

@enduml