@startuml
skinparam linetype polyline
skinparam linetype ortho
title High-level utils Class Diagram

package utils {
    package http_utils {
        class "Static Context" {
            + handle_request(AbstractRequest, bool): None {static}
            + handle_response(Callable[[], requests.Response], bool]: None {static}
        }

        class HttpRequest {
            + WRAP_LEVEL: int {static}
            - _INDENT_LEVEL: int {static}

            + __init__()
            + __str__()
            + with_endpoint(str, str)
            + with_header(str, str)
            + with_param(str, str)
            + with_body(dict)
            + with_api_version(str)
            + get()
            + post()
            + post_encrypted()
            + repr()
        }
    }

    package json_utils {
        class "Static Context" {
            + remove_null_fields(dict, Sequence[str]): dict {static}
        }
    }

    package streamlit_utils {
        class "Static Context" as susc {
            + init(): None {static}
            + display_config(): None {static}
            + http_code_handler(Union[int, str]): None {static}}
            + validation_error_handler(list[str], list[str]): bool {static}
            + does_not_have_keys(): bool {static}
        }
    }

    package string_utils {
        class StringBuilder {
            - _buffer: io.StringIO
            + set_length(int): StringBuilder
            + clear(): StringBuilder
            + append(Any, Literal["raise", "ignore"]): StringBuilder
            + newline(): StringBuilder
            + get(): str
        }
    }

    package verify {
        class Validators {
            + _NRIC_PRODUCT {static}
            + _S_T_CHECKDIGIT {static}
            + _G_F_CHECKDIGIT {static}
            + _M_CHECKDIGIT {static}

            + verify_uen(str): bool {static}
            + verify_aes_encryption_key(str): bool {static}
            + verify_cert_private_key(str, str): bool {static}
            + verify_nric(str): bool {static}
        }
    }

    string_utils --up[hidden]-> http_utils
    streamlit_utils --up[hidden]-> json_utils
    verify --up[hidden]-> http_utils
}

HttpRequest ..> StringBuilder
susc ..> HttpRequest
@enduml